<svg width="23" height="22" viewBox="0 0 23 22" fill="none" xmlns="http://www.w3.org/2000/svg">
<rect width="22.5" height="22" rx="4" transform="matrix(1 0 0 -1 0 22)" fill="#E2E4E9"/>
<path d="M6.5 5.75V16.25C6.5 16.6569 6.5 16.8603 6.45529 17.0272C6.33393 17.4801 5.98016 17.8339 5.52717 17.9553C5.36031 18 5.15687 18 4.75 18C4.34312 18 4.13969 18 3.97283 17.9553C3.51984 17.8339 3.16607 17.4801 3.04471 17.0272C3 16.8603 3 16.6569 3 16.25V5.75C3 5.34313 3 5.13969 3.04471 4.97282C3.16607 4.51984 3.51984 4.16607 3.97283 4.04471C4.13969 4 4.34312 4 4.75 4C5.15687 4 5.36031 4 5.52717 4.04471C5.98016 4.16607 6.33393 4.51984 6.45529 4.97282C6.5 5.13969 6.5 5.34313 6.5 5.75Z" fill="#7081A9" stroke="#7081A9" stroke-width="1.5" stroke-linecap="round" stroke-linejoin="round"/>
<path d="M13 11V16.25C13 16.6569 13 16.8603 12.9553 17.0272C12.8339 17.4801 12.4801 17.8339 12.0272 17.9553C11.8603 18 11.6569 18 11.25 18C10.8431 18 10.6397 18 10.4728 17.9553C10.0199 17.8339 9.66608 17.4801 9.54472 17.0272C9.5 16.8603 9.5 16.6569 9.5 16.25V11C9.5 10.5931 9.5 10.3897 9.54472 10.2228C9.66608 9.76984 10.0199 9.41607 10.4728 9.29471C10.6397 9.25 10.8431 9.25 11.25 9.25C11.6569 9.25 11.8603 9.25 12.0272 9.29471C12.4801 9.41607 12.8339 9.76984 12.9553 10.2228C13 10.3897 13 10.5931 13 11Z" fill="#7081A9" stroke="#7081A9" stroke-width="1.5" stroke-linecap="round" stroke-linejoin="round"/>
<path d="M19.5 14.5V16.25C19.5 16.6569 19.5 16.8603 19.4553 17.0272C19.3339 17.4801 18.9802 17.8339 18.5272 17.9553C18.3603 18 18.1569 18 17.75 18C17.3431 18 17.1397 18 16.9728 17.9553C16.5198 17.8339 16.1661 17.4801 16.0447 17.0272C16 16.8603 16 16.6569 16 16.25V14.5C16 14.0931 16 13.8897 16.0447 13.7228C16.1661 13.2699 16.5198 12.9161 16.9728 12.7947C17.1397 12.75 17.3431 12.75 17.75 12.75C18.1569 12.75 18.3603 12.75 18.5272 12.7947C18.9802 12.9161 19.3339 13.2699 19.4553 13.7228C19.5 13.8897 19.5 14.0931 19.5 14.5Z" fill="#7081A9" stroke="#7081A9" stroke-width="1.5" stroke-linecap="round" stroke-linejoin="round"/>
</svg>
