<svg width="25" height="25" viewBox="0 0 25 25" fill="none" xmlns="http://www.w3.org/2000/svg">
<path d="M12.5 3.01175C12.3344 3.00395 12.1677 3 12 3C6.47778 3 2 7.28357 2 12.5667C2 15.1051 3.03333 17.4115 4.71889 19.1231C5.09 19.5 5.33778 20.0148 5.23778 20.5448C5.07275 21.4112 4.69874 22.2194 4.15111 22.893C5.59195 23.161 7.09014 22.9197 8.37499 22.2364C8.82918 21.9949 9.05627 21.8741 9.21653 21.8496C9.37678 21.8251 9.60633 21.8682 10.0654 21.9545C10.7032 22.0742 11.3507 22.1343 12 22.1334C17.5222 22.1334 22 17.8499 22 12.5667C22 12.3765 21.9942 12.1875 21.9827 12" stroke="#E2CFE2" stroke-linecap="round" stroke-linejoin="round"/>
<path d="M14.5 1L19 9.5L24 5" stroke="#E2CFE2" stroke-linecap="round" stroke-linejoin="round"/>
<path d="M11.9955 13H12.0045M15.991 13H16M8 13H8.00897" stroke="#E2CFE2" stroke-width="1.5" stroke-linecap="round" stroke-linejoin="round"/>
</svg>
