<svg width="24" height="24" viewBox="0 0 24 24" fill="none" xmlns="http://www.w3.org/2000/svg">
<path d="M11.6981 20.2476C13.7476 20.2476 15.2761 20.2476 16.4481 20.0829C16.7151 19.9512 17.7437 20.2476 18.9959 18.9954C20.2481 17.7432 20.2481 12.9058 20.2481 11.6976V9.7976V9.79758C20.2481 5.76704 20.2481 3.75179 18.9959 2.49967C17.7438 1.24756 15.7286 1.24756 11.6981 1.24756H9.79809C5.76754 1.24756 3.75229 1.24756 2.50017 2.49967C1.24805 3.75179 1.24805 5.76705 1.24805 9.7976V11.6976C1.24805 15.7281 1.24805 17.7433 2.50017 18.9954C3.75229 20.2476 5.76754 20.2476 9.79809 20.2476H11.6981Z" stroke="white" stroke-width="1.5" stroke-linecap="round" stroke-linejoin="round"/>
<path d="M14.9453 10.8948C14.7686 11.5215 13.9333 11.9644 12.2629 12.8502C10.648 13.7064 9.8406 14.1346 9.18992 13.9625C8.9209 13.8913 8.6758 13.7562 8.47812 13.57C8 13.1198 8 12.2465 8 10.5C8 8.7535 8 7.88018 8.47812 7.42995C8.6758 7.24381 8.9209 7.10868 9.18992 7.03753C9.8406 6.86544 10.648 7.29357 12.2629 8.14983C13.9333 9.0356 14.7686 9.4785 14.9453 10.1052C15.0182 10.3639 15.0182 10.6361 14.9453 10.8948Z" stroke="white" stroke-width="1.5" stroke-linejoin="round"/>
</svg>
