<svg width="111" height="130" viewBox="0 0 111 130" fill="none" xmlns="http://www.w3.org/2000/svg">
<path d="M105.252 54.823L21.8194 2.19115C18.1455 -0.124033 13.6437 -0.552771 9.70332 0.660557C4.09739 2.1397 0 6.80009 0 12.3308V117.805C0 124.523 6.04851 129.972 13.5056 129.972H13.9625C16.932 130.152 19.9825 129.462 22.6094 127.803L105.252 75.6682C109.149 73.2116 111.153 69.2329 110.991 65.2456C111.153 61.2584 109.149 57.2797 105.252 54.823ZM73.0866 84.4145L26.1595 112.098C20.9152 115.194 13.8768 113.869 10.4409 109.144C8.81817 106.906 8.29946 104.312 8.75155 101.868C8.65162 101.294 8.58499 100.707 8.58499 100.106V29.8919C8.58499 23.6152 14.2338 18.5261 21.2007 18.5261C28.1677 18.5261 33.8165 23.6152 33.8165 29.8919V83.1326L60.6517 67.3036C65.896 64.2081 72.9343 65.5329 76.3702 70.2576C79.8061 74.9823 78.3356 81.3233 73.0914 84.4188L73.0866 84.4145Z" fill="#435070"/>
</svg>
