<svg width="100" height="130" viewBox="0 0 100 130" fill="none" xmlns="http://www.w3.org/2000/svg">
<path d="M94.8214 54.823L19.6571 2.19115C16.3473 -0.124033 12.2916 -0.552771 8.74173 0.660557C3.69134 2.1397 0 6.80009 0 12.3308V117.805C0 124.523 5.44911 129.972 12.1673 129.972H12.5788C15.2541 130.152 18.0022 129.462 20.3688 127.803L94.8214 75.6682C98.3326 73.2116 100.138 69.2329 99.9918 65.2456C100.138 61.2584 98.3326 57.2797 94.8214 54.823ZM65.8438 84.4145L23.5671 112.098C18.8425 115.194 12.5017 113.869 9.40625 109.144C7.9443 106.906 7.47699 104.312 7.88428 101.868C7.79425 101.294 7.73422 100.707 7.73422 100.106V29.8919C7.73422 23.6152 12.8232 18.5261 19.0998 18.5261C25.3763 18.5261 30.4653 23.6152 30.4653 29.8919V83.1326L54.6412 67.3036C59.3657 64.2081 65.7066 65.5329 68.802 70.2576C71.8974 74.9823 70.5726 81.3233 65.8481 84.4188L65.8438 84.4145Z" fill="white"/>
</svg>
