<svg width="120" height="63" viewBox="0 0 120 63" fill="none" xmlns="http://www.w3.org/2000/svg">
<path d="M85.5072 27.5806L56.4265 7.30881C55.146 6.41709 53.5768 6.25195 52.2034 6.71928C50.2494 7.28899 48.8213 9.08399 48.8213 11.2142V51.8386C48.8213 54.4263 50.9295 56.5251 53.5287 56.5251H53.688C54.723 56.5945 55.7863 56.3286 56.7019 55.6896L85.5072 35.6093C86.8657 34.6631 87.564 33.1307 87.5076 31.595C87.564 30.0592 86.8657 28.5268 85.5072 27.5806ZM74.2959 38.9781L57.9393 49.6407C56.1114 50.833 53.6581 50.3227 52.4605 48.503C51.8949 47.641 51.7141 46.6419 51.8717 45.7006C51.8368 45.4794 51.8136 45.2531 51.8136 45.0219V17.9781C51.8136 15.5605 53.7825 13.6004 56.2109 13.6004C58.6392 13.6004 60.6081 15.5605 60.6081 17.9781V38.4843L69.9617 32.3876C71.7896 31.1953 74.2428 31.7056 75.4404 33.5254C76.638 35.3451 76.1255 37.7875 74.2976 38.9797L74.2959 38.9781Z" fill="white"
/>
<path d="M115.788 33.5485C114.566 31.7006 112.061 31.1838 110.194 32.3942L100.641 38.585V17.7667C100.641 15.3128 98.6306 13.323 96.1508 13.323C93.671 13.323 91.6606 15.3128 91.6606 17.7667V45.2234C91.6606 45.4579 91.6839 45.6874 91.7204 45.912C91.5595 46.8681 91.7436 47.882 92.3225 48.7573C93.545 50.6051 96.0496 51.122 97.9173 49.9115L114.622 39.0854C116.49 37.875 117.013 35.3963 115.79 33.5485H115.788ZM98.0169 13.8993C98.5377 14.104 99.0104 14.4046 99.4118 14.7794C98.9474 14.4855 98.4813 14.1932 98.0169 13.8993Z" fill="white"/>
<path d="M12.2474 17.3503C11.7425 14.9854 9.40781 13.4757 7.03278 13.9782C4.65776 14.4808 3.14174 16.8054 3.64666 19.1703L9.47561 46.4712C9.98053 48.8361 12.3152 50.3458 14.6902 49.8432C17.0652 49.3406 18.5813 47.0161 18.0763 44.6512L12.2474 17.3503Z" fill="white"/>
<path d="M44.5737 19.1706C45.0786 16.8057 43.5626 14.4812 41.1876 13.9786C38.8125 13.476 36.4779 14.9857 35.973 17.3506L30.144 44.6515C29.6391 47.0164 31.1551 49.3409 33.5301 49.8435C35.9052 50.3461 38.2398 48.8364 38.7447 46.4715L44.5737 19.1706Z" fill="white"/>
<path d="M28.5067 32.6716C28.5067 30.2539 26.5384 28.2939 24.1103 28.2939C21.6822 28.2939 19.7139 30.2539 19.7139 32.6716V45.5619C19.7139 47.9796 21.6822 49.9396 24.1103 49.9396C26.5384 49.9396 28.5067 47.9796 28.5067 45.5619V32.6716Z" fill="white"/>
</svg>
